<svg id="Capa_1" enable-background="new 0 0 512 512" height="512" viewBox="0 0 512 512" width="512" xmlns="http://www.w3.org/2000/svg"><g><g><path d="m62.493 100.148h387.556v292.664h-387.556z" fill="#3f6d8e"/><path d="m62.493 100.148h106.153v292.664h-106.153z" fill="#365e7d"/><g><g><path d="m474.401 80.32c-14.427-1.164-25.349-13.6-25.353-28.073v.553c0 15.186-12.425 27.611-27.611 27.611s-27.611-12.425-27.611-27.611c0 15.186-12.425 27.611-27.611 27.611s-27.611-12.425-27.611-27.611c0 5.563-1.673 10.752-4.533 15.099v-.001c.378 3.128.594 6.305.594 9.535 0 12.153-2.754 23.661-7.662 33.943 12.268 56.635 53.922 102.035 107.856 118.784 2.202-2.06 5.147-3.334 8.382-3.334h61.028v-174.026c.001 15.932-13.675 28.826-29.868 27.52z" fill="#e28086"/></g></g><g><g><path d="m361.836 80.057c-13.124-2.115-23.231-13.561-23.231-27.258 0 5.563-1.673 10.752-4.533 15.099 0 0 0-.001.001-.001.377 3.128.594 6.305.594 9.535 0 12.153-2.754 23.661-7.662 33.943 12.268 56.635 53.922 102.035 107.856 118.784 2.202-2.059 5.147-3.334 8.382-3.334h17.137c-47.755-23.754-84.823-78.523-98.544-146.768z" fill="#dd636e"/></g></g><path d="m176.875 77.433c0-3.23.217-6.407.594-9.535-2.859-4.347-4.532-9.535-4.532-15.098 0 15.186-12.425 27.611-27.611 27.611s-27.611-12.425-27.611-27.611c0 15.186-12.425 27.611-27.611 27.611s-27.611-12.425-27.611-27.611c0 15.933-13.676 28.826-29.869 27.52-14.43-1.164-25.353-13.605-25.353-28.081v174.587h61.028c3.235 0 6.18 1.274 8.382 3.334 53.934-16.749 95.588-62.149 107.857-118.785-4.909-10.282-7.663-21.79-7.663-33.942z" fill="#e28086"/><g><g><path d="m32.623 80.32c-14.429-1.164-25.352-13.605-25.352-28.081v174.587h32.767v-146.903c-2.381.455-4.866.602-7.415.397z" fill="#dd636e"/></g></g><path d="m443.243 257.49c-2.729 0-5.249-.911-7.296-2.429-40.416 29.05-66.812 78.971-66.812 133.172 0 1.532.026 3.058.068 4.58h135.067v-135.323z" fill="#e28086"/><path d="m465.444 257.49h-22.201c-2.729 0-5.249-.911-7.295-2.429-40.416 29.05-66.812 78.971-66.812 133.172 0 1.532.026 3.058.068 4.58h32.767c-.042-1.522-.068-3.048-.068-4.58-.001-52.723 24.98-101.39 63.541-130.743z" fill="#dd636e"/><path d="m68.298 257.49c2.729 0 5.249-.911 7.296-2.429 40.416 29.05 66.812 78.971 66.812 133.172 0 1.532-.026 3.058-.068 4.58h-135.067v-135.323z" fill="#e28086"/><g><g><path d="m7.271 257.49h32.767v135.322h-32.767z" fill="#dd636e"/></g></g><g><g><path d="m336.296 65.387c.388 3.217.611 6.484.611 9.806 0 44.81-36.326 81.136-81.136 81.136s-81.135-36.326-81.135-81.136c0-3.321.223-6.589.611-9.806v-21.419h161.66z" fill="#e28086"/></g></g><path d="m229.857 75.193c0-3.321.223-6.589.611-9.806v-21.419h-55.222v21.419c-.388 3.217-.611 6.484-.611 9.806 0 44.81 36.326 81.135 81.135 81.135 9.696 0 18.992-1.707 27.611-4.826-31.215-11.298-53.524-41.195-53.524-76.309z" fill="#dd636e"/><path d="m462.278 259.49h41.992v-34.664h-62.028c-6.769 0-12.307 5.538-12.307 12.307v10.05c0 6.769 5.538 12.307 12.307 12.307z" fill="#ffe07d"/><path d="m7.271 224.826h62.028c6.769 0 12.307 5.538 12.307 12.307v10.05c0 6.769-5.538 12.307-12.307 12.307h-62.028z" fill="#ffe07d"/><path d="m462.703 247.183v-10.051c0-6.769 5.538-12.307 12.307-12.307h-32.767c-6.769 0-12.307 5.538-12.307 12.307v10.051c0 6.769 5.538 12.307 12.307 12.307h20.036 12.731c-6.769 0-12.307-5.538-12.307-12.307z" fill="#ffd064"/><path d="m7.271 224.826h32.767v34.664h-32.767z" fill="#ffd064"/><path d="m117.715 7.525v48.275c0 15.186 12.425 27.611 27.611 27.611s27.611-12.425 27.611-27.611v-48.275z" fill="#ffe07d"/><path d="m145.326 55.8v-48.275h-27.611v48.275c0 15.186 12.425 27.611 27.611 27.611 5.022 0 9.737-1.365 13.805-3.733-8.234-4.793-13.805-13.714-13.805-23.878z" fill="#ffd064"/><path d="m228.16 7.525v48.275c0 15.186 12.425 27.611 27.611 27.611s27.611-12.425 27.611-27.611v-48.275z" fill="#ffe07d"/><path d="m255.771 55.8v-48.275h-27.611v48.275c0 15.186 12.425 27.611 27.611 27.611 5.022 0 9.737-1.365 13.806-3.733-8.236-4.793-13.806-13.714-13.806-23.878z" fill="#ffd064"/><path d="m338.604 7.525v48.275c0 15.186 12.425 27.611 27.611 27.611s27.611-12.425 27.611-27.611v-48.275z" fill="#ffe07d"/><path d="m366.215 55.8v-48.275h-27.611v48.275c0 15.186 12.425 27.611 27.611 27.611 5.021 0 9.737-1.365 13.806-3.733-8.235-4.793-13.806-13.714-13.806-23.878z" fill="#ffd064"/><path d="m7.271 16.576v38.662c0 14.476 10.924 26.917 25.353 28.081 16.193 1.306 29.869-11.587 29.869-27.52v-48.274h-46.171c-4.999 0-9.051 4.053-9.051 9.051z" fill="#ffe07d"/><path d="m34.882 55.8v-48.275h-18.56c-4.999 0-9.051 4.052-9.051 9.051v38.662c0 14.476 10.924 26.917 25.353 28.081 5.863.473 11.391-.923 16.064-3.643-8.235-4.792-13.806-13.712-13.806-23.876z" fill="#ffd064"/><path d="m495.22 7.525h-46.172v47.713c0 14.476 10.924 26.917 25.353 28.081 16.193 1.306 29.869-11.587 29.869-27.52v-39.223c0-4.998-4.052-9.051-9.05-9.051z" fill="#ffe07d"/><path d="m476.66 55.239v-47.714h-27.611v47.713c0 14.476 10.924 26.917 25.353 28.081 5.874.474 11.412-.928 16.091-3.659-8.339-4.923-13.833-14.158-13.833-24.421z" fill="#ffd064"/><path d="m7.271 423.681v67.19c0 7.541 6.113 13.654 13.654 13.654h469.691c7.541 0 13.654-6.113 13.654-13.654v-67.19z" fill="#b78b7a"/><path d="m40.037 490.871v-67.19h-32.766v67.19c0 7.541 6.113 13.654 13.654 13.654h32.767c-7.541 0-13.655-6.113-13.655-13.654z" fill="#aa7a63"/><path d="m7.271 390.812h497v34.869h-497z" fill="#aa7a63"/><path d="m7.271 390.812h32.767v34.869h-32.767z" fill="#986b54"/><g fill="#7fb3fa"><path d="m61.493 7.525v48.275c0 15.186 13.425 27.611 28.611 27.611s28.611-12.425 28.611-27.611v-48.275z"/><path d="m171.937 7.525v48.275c0 15.186 13.425 27.611 28.611 27.611s28.612-12.425 28.612-27.611v-48.275z"/><path d="m282.382 7.525v48.275c0 15.186 13.425 27.611 28.611 27.611s28.611-12.425 28.611-27.611v-48.275z"/><path d="m392.826 7.525v48.275c0 15.186 13.425 27.611 28.611 27.611s28.611-12.425 28.611-27.611v-48.275z"/></g><path d="m89.104 55.8v-48.275h-27.611v48.275c0 15.186 13.425 27.611 28.611 27.611 4.92 0 9.652-1.311 13.805-3.59-8.666-4.758-14.805-13.756-14.805-24.021z" fill="#64a6f4"/><path d="m199.549 55.8v-48.275h-27.611v48.275c0 15.186 13.425 27.611 28.611 27.611 4.92 0 9.652-1.311 13.806-3.59-8.668-4.758-14.806-13.756-14.806-24.021z" fill="#64a6f4"/><path d="m309.993 55.8v-48.275h-27.611v48.275c0 15.186 13.425 27.611 28.611 27.611 4.92 0 9.652-1.311 13.806-3.59-8.667-4.758-14.806-13.756-14.806-24.021z" fill="#64a6f4"/><path d="m420.437 55.8v-48.275h-27.611v48.275c0 15.186 13.425 27.611 28.611 27.611 4.92 0 9.652-1.311 13.806-3.591-8.667-4.757-14.806-13.755-14.806-24.02z" fill="#64a6f4"/></g><g><path d="m495.449 0c-18.325 0-461.313 0-478.897 0-9.127 0-16.552 7.425-16.552 16.551v474.295c0 11.664 9.49 21.154 21.154 21.154h217.346c4.143 0 7.5-3.357 7.5-7.5s-3.357-7.5-7.5-7.5h-217.346c-3.394 0-6.154-2.761-6.154-6.154v-57.689h482v57.689c0 3.394-2.761 6.154-6.154 6.154h-217.346c-4.143 0-7.5 3.357-7.5 7.5s3.357 7.5 7.5 7.5h217.346c11.664 0 21.154-9.49 21.154-21.154 0-5.35 0-309.536 0-319.753 0-4.143-3.357-7.5-7.5-7.5s-7.5 3.357-7.5 7.5v48.208h-34.078c-22.421-16.181-40.474-50.34-48.51-92.024-.784-4.067-4.716-6.736-8.784-5.944-4.067.784-6.729 4.717-5.944 8.784 7.252 37.62 21.795 69.018 40.96 89.396-2.446.356-4.823 1.193-6.835 2.323-49.232-16.645-86.697-58.228-98.701-109.659 4.715-10.691 7.174-22.499 7.283-33.847 15.099 14.234 39.006 12.238 51.665-3.889 14.002 17.837 41.188 18.013 55.327-.135 11.656 14.968 32.564 17.811 47.617 7.21v54.577c0 4.143 3.357 7.5 7.5 7.5s7.5-3.357 7.5-7.5c0-6.023 0-116.295 0-119.542 0-9.126-7.425-16.551-16.551-16.551zm-204.338 15h40.223v37.774c0 10.935-8.967 20.111-20.111 20.111-11.09 0-20.111-9.021-20.111-20.111v-37.774zm-55.222 0h40.223v37.774c0 11.09-9.021 20.111-20.111 20.111-11.089 0-20.11-9.021-20.11-20.111 0-.007-.001-.013-.001-.019v-37.755zm-7.499 59.44c13.878 17.67 40.926 18.152 55.222 0 10.438 13.253 28.637 17.182 43.454 9.656-3.319 36.072-33.829 64.706-71.066 64.706-37.111 0-67.721-28.495-71.065-64.706 15.16 7.688 33.251 3.316 43.455-9.656zm-47.723-59.44h40.222v37.774c0 11.181-9.183 20.111-20.111 20.111-11.07 0-20.111-9.112-20.111-20.111zm-55.223 0h40.223v37.774c0 11.09-9.021 20.111-20.111 20.111s-20.111-9.021-20.111-20.111v-37.774zm-55.221 0h40.222v37.774c0 11.09-9.021 20.111-20.11 20.111-11.09 0-20.111-9.021-20.111-20.111v-37.774zm-55.223 1.551c0-.856.696-1.551 1.552-1.551h38.671v37.774c0 11.335-9.716 21.011-21.766 20.044-10.35-.835-18.457-9.885-18.457-20.605zm0 64.867c15.338 10.997 36.445 7.458 47.709-6.994 14.057 17.906 41.131 17.959 55.235.017 12.863 16.333 36.732 17.957 51.665 3.89.114 11.906 2.775 23.618 7.284 33.845-12.005 51.433-49.47 93.015-98.702 109.66-1.992-1.12-4.356-1.964-6.835-2.323 19.166-20.378 33.708-51.777 40.959-89.396.784-4.067-1.878-8-5.944-8.784-4.074-.791-8.001 1.878-8.784 5.944-8.035 41.684-26.088 75.844-48.51 92.024h-34.077zm0 152.883h53.527c2.497 0 4.807 2.166 4.807 4.807v6.051c0 2.738-2.372 4.807-4.807 4.807h-53.527zm0 30.664h28.365c14.31 20.273 24.807 48.586 29.635 80.159.626 4.092 4.451 6.906 8.548 6.28 4.095-.626 6.906-4.453 6.28-8.548-4.529-29.614-13.843-56.725-26.579-77.892h7.278c2.335 0 4.802-.499 6.573-1.128 36.91 28.265 59.121 72.42 60.007 119.45h-120.107zm482 153.19h-482v-19.868h482zm-58.334-179.048c0-2.619 2.284-4.807 4.807-4.807h53.527v15.664h-53.527c-2.437 0-4.807-2.07-4.807-4.807zm-1.767 24.73c1.75.622 4.208 1.128 6.573 1.128h7.279c-12.736 21.166-22.05 48.277-26.58 77.892-.693 4.536 2.814 8.635 7.424 8.635 3.641 0 6.837-2.657 7.404-6.367 4.829-31.574 15.326-59.886 29.636-80.159h28.365v118.322h-120.107c.885-47.031 23.096-91.186 60.006-119.451zm-12.628-29.498c-.38 1.53-.604 3.122-.604 4.768v6.051c0 3.041.709 5.912 1.938 8.489-39.289 31.146-62.823 78.879-63.695 129.64h-211.819c-.872-50.761-24.407-98.495-63.695-129.64 1.229-2.577 1.938-5.448 1.938-8.489v-6.051c0-1.646-.224-3.238-.604-4.768 47.189-17.597 83.903-56.205 99.735-104.395 15.807 20.572 40.647 33.858 68.536 33.858s52.729-13.287 68.536-33.859c15.829 48.191 52.544 86.799 99.734 104.396zm-37.715-181.565c0 11.089-9.021 20.11-20.111 20.11-11.089 0-20.11-9.021-20.11-20.11v-37.774h40.222v37.774zm55.221-.561v.005.002c0 12.385-9.569 20.664-20.11 20.664-11.09 0-20.111-9.021-20.111-20.11v-37.774h40.222v37.213zm55.223.561c0 11.372-9.789 21.006-21.766 20.044-10.5-.847-18.444-10.057-18.456-20.585v-37.233h38.671c.855 0 1.551.695 1.551 1.551z"/></g></g></svg>